{"title":"Cold.In.July.2013.1080p.BluRay.DTS.x264-GKNByNW","uid":11148958,"size":8569848067,"categoryP":"video","categoryS":"hd___movies","magnet":"?xt=urn:btih:bf98a9ce07250d040d4d60a6774023bc6de17224&amp;dn=Cold.In.July.2013.1080p.BluRay.DTS.x264-GKNByNW&amp;tr=udp%3A%2F%2Ftracker.openbittorrent.com%3A80&amp;tr=udp%3A%2F%2Fopen.demonii.com%3A1337&amp;tr=udp%3A%2F%2Ftracker.coppersurfer.tk%3A6969&amp;tr=udp%3A%2F%2Fexodus.desync.com%3A6969","seeders":1,"leechers":0,"uploader":"GKNByNW","files":8,"time":1412299688,"description":"Release Title : Cold.In.July.2013.1080p.BluRay.DTS.x264-GKNByNW\nRelease Date : 23 May 2014 (USA)\nRelease Length : 1:50:02\nGenre : Crime | Thriller\nLanguage : English\nSource : Cold.in.July.2013.1080p.BluRay.REMUX.AVC.DTS-MA.5.1\nTotal Size : 7.97GB\n\nimdB\n---- &lt;a href=&quot;\nhttp://www.imdb.com/title/tt1179031/&quot; rel=&quot;nofollow&quot; target=&quot;_NEW&quot;&gt;\nhttp://www.imdb.com/title/tt1179031/&lt;/a&gt;\n\nStoryline: When a protective father meets a murderous ex-con,\nboth need to deviate from the path they are on as they soon\nfind themselves entangled in a downwards spiral of lies and\nviolence while having to confront their own inner psyche.\n\nCast\n----\nVinessa Shaw\t\t~\tAnn Dane\nMichael C. Hall\t\t~\tRichard Dane\nDon Johnson\t\t~\tJim Bob\nWyatt Russell\t\t~\tFreddy\nSam Shepard\t\t~\tRussel\nBill Sage\t\t~\tBaseball Announcer\nNick Damici\t\t~\tRay Price\nLanny Flaherty\t\t~\tJack Crow\nBrianda Agramonte\t~\tYoung Latina girl on tape\nTim Lajcik\t\t~\tMex\nBrogan Hall\t\t~\tJordan Dane\nHappy Anderson\t\t~\tTed\nKristin Griffith\t~\tKay\nKen Holmes\t\t~\tBurglar\nRachel Zeiger-Haag\t~\tValerie\n\n~~~~~~~~~~~~~~~~~~~~\n\nVideo Information\n-----------------\nID : 1\nFormat : AVC\nFormat/Info : Advanced Video Codec\nFormat profile : &lt;a class=&quot;__cf_email__&quot; href=&quot;/cdn-cgi/l/email-protection&quot; data-cfemail=&quot;5b13323c331b176f756a&quot;&gt;[email&amp;#160;protected]&lt;/a&gt;&lt;script cf-hash='f9e31' type=&quot;text/javascript&quot;&gt;\n/* &lt;![CDATA[ */!function(){try{var t=&quot;currentScript&quot;in document?document.currentScript:function(){for(var t=document.getElementsByTagName(&quot;script&quot;),e=t.length;e--;)if(t[e].getAttribute(&quot;cf-hash&quot;))return t[e]}();if(t&amp;&amp;t.previousSibling){var e,r,n,i,c=t.previousSibling,a=c.getAttribute(&quot;data-cfemail&quot;);if(a){for(e=&quot;&quot;,r=parseInt(a.substr(0,2),16),n=2;a.length-n;n+=2)i=parseInt(a.substr(n,2),16)^r,e+=String.fromCharCode(i);e=document.createTextNode(e),c.parentNode.replaceChild(e,c)}}}catch(u){}}();/* ]]&gt; */&lt;/script&gt;\nFormat settings, CABAC : Yes\nFormat settings, ReFrames : 5 frames\nCodec ID : V_MPEG4/ISO/AVC\nDuration : 1h 50mn\nBit rate : 8 835 Kbps\nWidth : 1 920 pixels\nHeight : 800 pixels\nDisplay aspect ratio : 2.40:1\nFrame rate mode : Constant\nFrame rate : 23.976 fps\nColor space : YUV\nChroma subsampling : 4:2:0\nBit depth : 8 bits\nScan type : Progressive\nBits/(Pixel*Frame) : 0.240\nStream size : 6.65 GiB (83%)\nWriting library : x264 core 138 r2358 9e941d1\n\nAudio Information\n-----------------\nID : 2\nFormat : DTS\nFormat/Info : Digital Theater Systems\nMode : 16\nFormat settings, Endianness : Big\nCodec ID : A_DTS\nDuration : 1h 50mn\nBit rate mode : Constant\nBit rate : 1 509 Kbps\nChannel(s) : 6 channels\nChannel positions : Front: L C R, Side: L R, LFE\nSampling rate : 48.0 KHz\nBit depth : 24 bits\nCompression mode : Lossy\nStream size : 1.16 GiB (15%)\nTitle : English\nLanguage : English\nDefault : Yes\nForced : No\n\nText #1 Information\n-------------------\nID : 3\nFormat : PGS\nMuxing mode : zlib\nCodec ID : S_HDMV/PGS\nCodec ID/Info : The same subtitle format used on BDs/HD-DVDs\nTitle : English SDH\nLanguage : English\nDefault : No\nForced : No\n\nText #2 Information\n-------------------\nID : 4\nFormat : PGS\nMuxing mode : zlib\nCodec ID : S_HDMV/PGS\nCodec ID/Info : The same subtitle format used on BDs/HD-DVDs\nTitle : Spanish\nLanguage : Spanish\nDefault : No\nForced : No\n\nChapters : Yes\n\n~~~~~~~~~~~~~~~~~~~~\n\nPlease seed as much as you take.\n\n---==* GKNByNW *==---","torrent":{"xt":"urn:btih:bf98a9ce07250d040d4d60a6774023bc6de17224","amp;dn":"Cold.In.July.2013.1080p.BluRay.DTS.x264-GKNByNW","amp;tr":["udp%3A%2F%2Ftracker.openbittorrent.com%3A80","udp%3A%2F%2Fopen.demonii.com%3A1337","udp%3A%2F%2Ftracker.coppersurfer.tk%3A6969","udp%3A%2F%2Fexodus.desync.com%3A6969"],"infoHash":"bf98a9ce07250d040d4d60a6774023bc6de17224","infoHashBuffer":{"type":"Buffer","data":[191,152,169,206,7,37,13,4,13,77,96,166,119,64,35,188,109,225,114,36]},"announce":[],"urlList":[]}}